<?xml version="1.0" encoding="utf-8"?>
<!-- Generator: Adobe Illustrator 15.0.0, SVG Export Plug-In . SVG Version: 6.00 Build 0)  -->
<!DOCTYPE svg PUBLIC "-//W3C//DTD SVG 1.1//EN" "http://www.w3.org/Graphics/SVG/1.1/DTD/svg11.dtd">
<svg version="1.1" id="Calque_1" xmlns="http://www.w3.org/2000/svg" xmlns:xlink="http://www.w3.org/1999/xlink" x="0px" y="0px"
	 width="286.007px" height="371.771px" viewBox="0 0 286.007 371.771" enable-background="new 0 0 286.007 371.771"
	 xml:space="preserve">
<g>
	<g>
		<path fill="#F6F6F6" d="M154.688,220.589c-0.685,0.051-1.362,0.115-2.045,0.203l-124.989,5.352l-0.022,0.02
			c-0.208-0.342-0.427-0.694-0.649-1.04l0.01-0.017c1.025-0.099,2.035-0.203,3.06-0.285l0.002,0.355
			c1.547,1.295,2.738-0.063,4.119-0.139c0.364-0.027,0.732-0.058,1.098-0.129l-0.019-0.572c2.438-0.237,4.885-0.44,7.338-0.647
			L154.688,220.589z"/>
		<path fill="#F6F6F6" d="M159.25,339.118L31.337,362.425c-9.165-1.63-18.092-2.098-26.808-8.522l152.938-15.252
			C158.058,338.847,158.646,338.992,159.25,339.118z"/>
		<path fill="#F6F6F6" d="M14.639,262.984l138.627-3.958c-0.301,0.082-0.598,0.184-0.881,0.315l-137.612,7.543L14.639,262.984z"/>
		<path fill="#F6F6F6" d="M154.515,298.796L3.123,313.554l-0.1-7.289l151.065-7.893C154.189,298.634,154.31,298.738,154.515,298.796
			z"/>
	</g>
	<polygon fill="#B2B2B2" points="285,9.455 286.007,16.991 182.404,8.878 181.272,0 216.326,3.186 221.056,3.621 255.74,6.788 
		260.609,7.231 	"/>
	<polygon fill="#B2B2B2" points="249.415,48.546 250.314,55.771 177.87,45.449 177.87,36.526 180.314,36.932 218.739,43.377 
		223.508,44.195 	"/>
	<polygon fill="#B2B2B2" points="208.141,84.797 208.527,93.792 173.637,83.767 173.213,72.914 177.668,74.426 182.439,76.038 	"/>
	<path fill="#B2B2B2" d="M168.275,83.68l-16.541,13.694c-0.711-2.169,0.191-7.482,0-8.12l16.541-15.447
		C167.873,74.929,166.68,79.53,168.275,83.68z"/>
	<path fill="#B2B2B2" d="M135.993,115.598l4.671-1.023c0,0,21.545-4.638,21.349-4.523c-0.604,0.366,1.09,7.264,1.423,7.349
		c0.344,0.065-52.533,9.945-52.533,9.945c0.315-0.585-1.268-5.066-0.895-6.127l25.979-5.693L135.993,115.598z"/>
	<path fill="#B2B2B2" d="M100.437,154.837l58.243-4.037l-0.003,0.008c-0.136,0.014-0.261,0.036-0.39,0.06
		c-0.276,0.04-0.564,0.11-0.827,0.194c-0.534,0.179-1.003,0.441-1.381,0.732c-0.835,0.673-1.157,1.52-1.118,2.321l0.034,0.674
		c0.039,0.807,0.46,1.643,1.354,2.227c0.393,0.274,0.888,0.491,1.454,0.632c0.266,0.064,0.551,0.11,0.84,0.131
		c0.304,0.027,0.6,0.037,0.905,0.023l-89.224,5.51c-0.518,0.024-0.567-6.34-0.313-6.361l25.635-1.776L100.437,154.837z"/>
	<path fill="#B2B2B2" d="M157.238,192.97c0.049,0.002,0.102,0.003,0.163,0.007l0.005,0.012l-121.47,5.803
		c-0.674,0.027-1.14-0.03-1.615-0.191l0.044-3.875c0.452-0.206,0.938-0.312,1.608-0.351l23.89-1.203l5.067-0.254l92.599-4.675
		c-0.23,0.016-0.473,0.043-0.703,0.078c-0.236,0.036-0.449,0.083-0.656,0.141c-0.381,0.12-0.696,0.283-0.945,0.447
		c-0.349,0.233-0.561,0.491-0.688,0.745c-0.168,0.304-0.23,0.596-0.213,0.894l0.019,0.449c0.017,0.296,0.108,0.586,0.291,0.86
		c0.168,0.244,0.4,0.481,0.771,0.683c0.254,0.143,0.582,0.268,0.988,0.35c0.205,0.038,0.427,0.061,0.663,0.072
		C157.118,192.965,157.17,192.968,157.238,192.97z"/>
	<path fill="#B2B2B2" d="M159.547,346.61L32.867,371.693l-0.908,0.078c0.159-0.082-0.381-9.285-0.622-9.347l127.914-23.307
		C159.495,339.183,159.733,346.562,159.547,346.61z"/>
	<path fill="#B2B2B2" d="M27.653,226.144l124.989-5.352c-2.382,0.268-0.578,5.646,0.562,5.652l-122.512,4.352
		c0.024-0.044-1.518,0.512-3.71-1.098c-2.836-3.755-1.061-3.535,0.649-3.535L27.653,226.144z"/>
	<path fill="#B2B2B2" d="M155.476,305.767L0.571,321.504L0,313.496c0,0,154.723-14.497,154.813-14.364
		C154.947,299.355,155.576,305.76,155.476,305.767z"/>
	<path fill="#B2B2B2" d="M152.58,266.149c0.014,0.021,0.03,0.034,0.052,0.037l0.014,0.007l-139.285,7.231l1.161-6.974l137.863-7.112
		c-0.025,0.014-0.051,0.037-0.064,0.044C152.285,259.423,152.555,266.13,152.58,266.149z"/>
	<g>
		<path fill="#F6F6F6" d="M182.404,8.878l103.881,7.818c-14.969,3.267-29.986,6.369-45.106,8.375
			c-0.365,0.056-0.733,0.037-1.095-0.061l-17.317-4.376l-4.778-1.218l-38.511-9.724l-0.583-0.149v-0.02
			c0.271,0.051,0.537,0.049,0.787-0.012C180.598,9.337,181.502,9.114,182.404,8.878z"/>
		<path fill="#F6F6F6" d="M178.725,45.33l71.589,10.44c-17.043,2.135-34.12,3.882-51.229,5.173c-0.783,0.056-1.467-0.11-2.186-0.574
			l-15.463-9.774l-4.835-3.055l-2.773-1.76c0.432,0.054,0.899,0.051,1.419-0.017C176.404,45.646,177.565,45.498,178.725,45.33z"/>
		<path fill="#F6F6F6" d="M173.881,83.602l34.646,10.58c-17.985,1.347-38.783,2.409-56.792,3.192l16.541-13.694
			C169.578,83.594,172.568,83.697,173.881,83.602z"/>
		<path fill="#F6F6F6" d="M168.742,117.328l-3.943,7.954c-17.845,0.871-35.705,1.561-53.582,2.062l53.793-10.415
			C166.341,116.884,167.414,117.391,168.742,117.328z"/>
		<path fill="#F6F6F6" d="M163.438,156.25l-42.845,5.219c-16.659,0.694-33.309,1.318-49.978,1.843l89.153-6.937
			C160.992,156.324,162.21,156.294,163.438,156.25z"/>
	</g>
	<path fill="#F6F6F6" d="M181.289,0l1.115,8.878c-0.707,0.142-2.736,0.686-3.509,0.664c-2.028-0.329-2.78-2.887-2.831-3.87
		l-0.052-0.831c-0.061-1.028,0.255-2.067,0.855-2.899c0.298-0.42,0.678-0.777,1.1-1.057c0.193-0.125,0.383-0.227,0.588-0.313
		c0.146-0.054,0.29-0.1,0.439-0.129c0.061-0.025,0.108-0.027,0.167-0.039C179.877,0.28,180.584,0.149,181.289,0z"/>
	<path fill="#F6F6F6" d="M174.767,46.1c-1.955-0.136-2.817-1.379-2.922-3.89l-0.054-0.883c-0.125-2.911,0.864-4.229,3.522-4.5
		c0.31-0.041,0.62-0.071,0.93-0.108c0.551-0.064,1.103-0.132,1.647-0.193l0.515,9.273c-0.863,0.107-1.725,0.202-2.584,0.281
		C175.435,46.123,175.087,46.128,174.767,46.1z"/>
	<path fill="#F6F6F6" d="M166.76,76.067c0.524-1.574,1.624-2.884,3.461-2.938c1.014-0.061,2.013-0.141,3.024-0.217l0.656,11.015
		c-1.02,0.075-2.014,0.221-3.031,0.225C164.613,84.173,166.45,76.96,166.76,76.067z"/>
	<path fill="#F6F6F6" d="M167.909,109.302l0.833,16.03c-1.328,0.062-2.643,0.113-3.973,0.159c-0.339,0.019-0.674-0.022-1.018-0.088
		c-0.334-0.085-0.659-0.205-0.969-0.373c-0.639-0.325-1.233-0.837-1.737-1.493c-1.028-1.345-1.644-3.243-1.74-5.152l-0.076-1.547
		c-0.103-1.886,0.319-3.809,1.203-5.201c0.434-0.673,0.976-1.22,1.581-1.586c0.197-0.114,0.409-0.23,0.634-0.295l1.303-0.292
		C165.267,109.417,166.582,109.366,167.909,109.302z"/>
	<path fill="#F6F6F6" d="M162.61,145.913l0.827,16.208c-1.227,0.044-2.445,0.074-3.67,0.125c-0.305,0.014-0.604-0.03-0.91-0.111
		c-0.292-0.068-0.58-0.19-0.852-0.353c-0.576-0.363-1.086-0.895-1.498-1.553c-0.934-1.406-1.411-3.354-1.503-5.218l-0.076-1.552
		c-0.091-1.851,0.178-3.782,0.971-5.276c0.361-0.649,0.813-1.226,1.338-1.599c0.259-0.179,0.544-0.318,0.816-0.397
		c0.129-0.042,0.252-0.088,0.388-0.108c0.166-0.041,0.329-0.066,0.503-0.057C160.179,145.992,161.394,145.95,162.61,145.913z"/>
	<path fill="#F6F6F6" d="M158.251,188.216l0.237,4.705l-2.074,0.09c-0.039-0.004-0.07-0.007-0.105-0.013
		c-0.135-0.017-0.264-0.042-0.384-0.088c-0.236-0.088-0.427-0.22-0.576-0.367c-0.219-0.21-0.357-0.451-0.459-0.7
		c-0.11-0.277-0.169-0.569-0.185-0.865l-0.02-0.449c-0.017-0.299,0.013-0.588,0.103-0.887c0.068-0.25,0.185-0.503,0.381-0.729
		c0.141-0.159,0.318-0.315,0.536-0.429c0.118-0.053,0.24-0.096,0.376-0.126c0.13-0.03,0.271-0.052,0.403-0.064
		C157.079,188.274,157.665,188.244,158.251,188.216z"/>
	<path fill="#F6F6F6" d="M155.513,226.163c-0.681,0.068-0.681,0.068-2.308,0.281c-1.008-0.844-2.906-4.693-0.562-5.652
		c0.683-0.088,1.361-0.152,2.045-0.203L155.513,226.163z"/>
	<path fill="#F6F6F6" d="M153.266,259.026l0.337,7.093l-1.062,0.037c-0.042-0.098-0.263-6.886-0.227-6.93
		C152.326,259.217,152.963,259.067,153.266,259.026z"/>
	<path fill="#F6F6F6" d="M31.958,371.771c-9.256-1.908-16.737-4.714-26.919-9.723l-0.51-8.146
		c9.826,3.612,17.643,6.893,26.808,8.522C31.577,362.486,32.264,371.822,31.958,371.771z"/>
</g>
</svg>
