<?xml version="1.0" encoding="utf-8"?>
<!-- Generator: Adobe Illustrator 16.0.0, SVG Export Plug-In . SVG Version: 6.00 Build 0)  -->
<!DOCTYPE svg PUBLIC "-//W3C//DTD SVG 1.1//EN" "http://www.w3.org/Graphics/SVG/1.1/DTD/svg11.dtd">
<svg version="1.1" id="Calque_1" xmlns="http://www.w3.org/2000/svg" xmlns:xlink="http://www.w3.org/1999/xlink" x="0px" y="0px"
	 width="286.007px" height="371.771px" viewBox="0 0 286.007 371.771" enable-background="new 0 0 286.007 371.771"
	 xml:space="preserve">
<g>
	<g>
		<path fill="#F6F6F6" d="M123.521,223.18c-0.547,0.051-1.088,0.113-1.633,0.199l-99.806,5.261l-0.018,0.02
			c-0.166-0.336-0.341-0.682-0.519-1.022l0.008-0.017c0.818-0.098,1.625-0.199,2.444-0.279L24,227.69
			c1.235,1.272,2.186-0.062,3.289-0.137c0.291-0.027,0.584-0.058,0.877-0.127l-0.016-0.562c1.947-0.232,3.901-0.432,5.859-0.635
			L123.521,223.18z"/>
		<path fill="#F6F6F6" d="M127.164,339.678L25.023,362.585c-7.318-1.603-14.446-2.062-21.407-8.375l122.124-14.99
			C126.212,339.412,126.682,339.554,127.164,339.678z"/>
		<path fill="#F6F6F6" d="M11.69,264.849l110.696-3.89c-0.241,0.08-0.478,0.18-0.705,0.309l-109.885,7.414L11.69,264.849z"/>
		<path fill="#F6F6F6" d="M123.383,300.046L2.494,314.552l-0.08-7.163l120.628-7.759
			C123.122,299.887,123.219,299.99,123.383,300.046z"/>
	</g>
	<polygon fill="#B2B2B2" points="227.577,15.666 228.381,23.073 145.653,15.098 144.749,6.373 172.74,9.505 176.517,9.931 
		204.212,13.045 208.1,13.48 	"/>
	<polygon fill="#B2B2B2" points="199.162,54.087 199.879,61.188 142.032,51.043 142.032,42.273 143.984,42.673 174.667,49.007 
		178.474,49.81 	"/>
	<polygon fill="#B2B2B2" points="166.205,89.717 166.511,98.557 138.652,88.705 138.313,78.037 141.871,79.523 145.68,81.107 	"/>
	<path fill="#B2B2B2" d="M134.371,88.619l-13.209,13.459c-0.567-2.132,0.153-7.354,0-7.981l13.209-15.182
		C134.049,80.018,133.097,84.54,134.371,88.619z"/>
	<path fill="#B2B2B2" d="M108.593,119.99l3.729-1.006c0,0,17.204-4.559,17.048-4.446c-0.482,0.36,0.871,7.141,1.136,7.224
		c0.275,0.063-41.949,9.775-41.949,9.775c0.251-0.576-1.012-4.979-0.714-6.023l20.745-5.595L108.593,119.99z"/>
	<path fill="#B2B2B2" d="M80.201,158.555l46.508-3.968l-0.002,0.009c-0.109,0.013-0.209,0.034-0.312,0.059
		c-0.22,0.039-0.45,0.108-0.66,0.19c-0.428,0.176-0.802,0.434-1.103,0.719c-0.667,0.662-0.925,1.495-0.894,2.282l0.027,0.662
		c0.032,0.794,0.367,1.615,1.082,2.189c0.313,0.269,0.708,0.481,1.161,0.621c0.211,0.062,0.439,0.107,0.67,0.128
		c0.243,0.027,0.479,0.037,0.723,0.022l-71.247,5.416c-0.414,0.023-0.454-6.23-0.25-6.252l20.47-1.746L80.201,158.555z"/>
	<path fill="#B2B2B2" d="M125.557,196.034c0.039,0.003,0.081,0.004,0.13,0.008l0.004,0.012l-96.996,5.703
		c-0.538,0.027-0.91-0.029-1.29-0.187l0.036-3.809c0.36-0.202,0.749-0.307,1.284-0.346l19.076-1.182l4.046-0.25l73.942-4.595
		c-0.184,0.016-0.378,0.041-0.562,0.076c-0.189,0.036-0.359,0.081-0.524,0.139c-0.304,0.118-0.555,0.277-0.754,0.439
		c-0.278,0.229-0.448,0.483-0.55,0.731c-0.134,0.3-0.184,0.586-0.17,0.88l0.016,0.441c0.013,0.29,0.086,0.576,0.233,0.845
		c0.134,0.24,0.319,0.473,0.615,0.671c0.204,0.142,0.465,0.265,0.789,0.345c0.164,0.037,0.341,0.06,0.529,0.069
		C125.462,196.029,125.502,196.032,125.557,196.034z"/>
	<path fill="#B2B2B2" d="M127.4,347.042L26.245,371.695l-0.725,0.076c0.127-0.08-0.304-9.126-0.497-9.188l102.142-22.906
		C127.36,339.742,127.549,346.994,127.4,347.042z"/>
	<path fill="#B2B2B2" d="M22.082,228.64l99.806-5.261c-1.903,0.265-0.461,5.551,0.449,5.557l-97.828,4.275
		c0.019-0.042-1.213,0.505-2.963-1.078c-2.264-3.69-0.847-3.475,0.519-3.475L22.082,228.64z"/>
	<path fill="#B2B2B2" d="M124.15,306.898L0.456,322.365L0,314.495c0,0,123.549-14.248,123.621-14.117
		C123.728,300.597,124.229,306.89,124.15,306.898z"/>
	<path fill="#B2B2B2" d="M121.837,267.96c0.011,0.021,0.024,0.034,0.042,0.037l0.011,0.007l-111.222,7.105l0.927-6.854
		l110.086-6.989c-0.021,0.015-0.042,0.036-0.051,0.042C121.602,261.348,121.818,267.94,121.837,267.96z"/>
	<g>
		<path fill="#F6F6F6" d="M145.653,15.098l82.95,7.685c-11.953,3.211-23.944,6.26-36.018,8.231
			c-0.292,0.055-0.586,0.036-0.875-0.061l-13.827-4.301l-3.815-1.197l-30.752-9.557l-0.465-0.147v-0.019
			c0.216,0.05,0.429,0.048,0.629-0.013C144.21,15.55,144.932,15.331,145.653,15.098z"/>
		<path fill="#F6F6F6" d="M142.715,50.926l57.164,10.262c-13.608,2.099-27.245,3.815-40.906,5.084
			c-0.625,0.055-1.172-0.108-1.746-0.564L144.879,56.1l-3.861-3.002l-2.214-1.73c0.345,0.053,0.718,0.051,1.134-0.016
			C140.861,51.237,141.789,51.091,142.715,50.926z"/>
		<path fill="#F6F6F6" d="M138.847,88.542l27.665,10.399c-14.359,1.323-30.968,2.366-45.348,3.137l13.208-13.459
			C135.41,88.534,137.798,88.635,138.847,88.542z"/>
		<path fill="#F6F6F6" d="M134.743,121.689l-3.149,7.818c-14.249,0.856-28.51,1.533-42.786,2.026l42.955-10.236
			C132.827,121.253,133.683,121.752,134.743,121.689z"/>
		<path fill="#F6F6F6" d="M130.508,159.944l-34.212,5.13c-13.302,0.682-26.598,1.295-39.908,1.812l71.19-6.818
			C128.554,160.017,129.528,159.987,130.508,159.944z"/>
	</g>
	<path fill="#F6F6F6" d="M144.762,6.373l0.891,8.726c-0.565,0.141-2.186,0.675-2.802,0.652c-1.62-0.323-2.22-2.837-2.261-3.804
		l-0.041-0.816c-0.049-1.01,0.204-2.031,0.682-2.849c0.239-0.413,0.541-0.764,0.878-1.04c0.154-0.122,0.307-0.223,0.47-0.307
		c0.117-0.053,0.232-0.098,0.351-0.127c0.049-0.024,0.086-0.026,0.134-0.038C143.634,6.648,144.199,6.519,144.762,6.373z"/>
	<path fill="#F6F6F6" d="M139.555,51.683c-1.562-0.135-2.249-1.355-2.333-3.824l-0.044-0.867c-0.099-2.861,0.69-4.156,2.813-4.423
		c0.247-0.041,0.495-0.07,0.743-0.107c0.439-0.062,0.88-0.129,1.314-0.189l0.411,9.113c-0.688,0.105-1.377,0.198-2.063,0.276
		C140.088,51.705,139.81,51.71,139.555,51.683z"/>
	<path fill="#F6F6F6" d="M133.16,81.136c0.419-1.548,1.298-2.835,2.765-2.889c0.809-0.06,1.606-0.138,2.415-0.213l0.523,10.826
		c-0.814,0.074-1.607,0.218-2.419,0.222C131.446,89.102,132.914,82.013,133.16,81.136z"/>
	<path fill="#F6F6F6" d="M134.079,113.801l0.665,15.756c-1.061,0.062-2.11,0.111-3.172,0.156c-0.271,0.019-0.538-0.021-0.812-0.086
		c-0.267-0.084-0.527-0.202-0.774-0.367c-0.51-0.319-0.985-0.822-1.387-1.467c-0.82-1.322-1.312-3.188-1.389-5.064l-0.061-1.521
		c-0.082-1.854,0.255-3.743,0.96-5.111c0.348-0.662,0.779-1.199,1.263-1.56c0.158-0.111,0.326-0.226,0.506-0.29l1.041-0.287
		C131.968,113.914,133.018,113.864,134.079,113.801z"/>
	<path fill="#F6F6F6" d="M129.847,149.785l0.66,15.93c-0.979,0.043-1.953,0.073-2.93,0.123c-0.243,0.014-0.482-0.03-0.727-0.109
		c-0.233-0.066-0.463-0.187-0.68-0.347c-0.46-0.357-0.867-0.879-1.196-1.526c-0.746-1.382-1.127-3.297-1.201-5.129l-0.06-1.525
		c-0.073-1.818,0.142-3.717,0.775-5.185c0.288-0.639,0.65-1.206,1.068-1.572c0.207-0.176,0.435-0.312,0.651-0.39
		c0.104-0.041,0.202-0.087,0.31-0.106c0.133-0.041,0.263-0.064,0.401-0.056C127.906,149.862,128.876,149.821,129.847,149.785z"/>
	<path fill="#F6F6F6" d="M126.366,191.362l0.188,4.625l-1.656,0.088c-0.031-0.004-0.055-0.007-0.083-0.013
		c-0.108-0.017-0.211-0.042-0.307-0.086c-0.188-0.086-0.341-0.216-0.46-0.361c-0.175-0.206-0.286-0.443-0.367-0.688
		c-0.088-0.271-0.135-0.559-0.148-0.849l-0.016-0.441c-0.014-0.295,0.01-0.578,0.083-0.872c0.054-0.245,0.147-0.494,0.305-0.717
		c0.112-0.157,0.253-0.309,0.427-0.421c0.095-0.053,0.192-0.094,0.301-0.124c0.103-0.03,0.216-0.052,0.321-0.064
		C125.43,191.421,125.898,191.39,126.366,191.362z"/>
	<path fill="#F6F6F6" d="M124.18,228.659c-0.544,0.066-0.544,0.066-1.843,0.277c-0.805-0.83-2.321-4.613-0.448-5.557
		c0.545-0.086,1.086-0.148,1.633-0.199L124.18,228.659z"/>
	<path fill="#F6F6F6" d="M122.386,260.96l0.269,6.97l-0.849,0.037c-0.033-0.096-0.21-6.769-0.181-6.811
		C121.634,261.146,122.143,260.999,122.386,260.96z"/>
	<path fill="#F6F6F6" d="M25.519,371.771c-7.391-1.875-13.364-4.634-21.495-9.558l-0.408-8.005
		c7.846,3.55,14.088,6.773,21.407,8.375C25.215,362.645,25.764,371.822,25.519,371.771z"/>
</g>
</svg>
