<?xml version="1.0" encoding="utf-8"?>
<!-- Generator: Adobe Illustrator 15.0.0, SVG Export Plug-In . SVG Version: 6.00 Build 0)  -->
<!DOCTYPE svg PUBLIC "-//W3C//DTD SVG 1.1//EN" "http://www.w3.org/Graphics/SVG/1.1/DTD/svg11.dtd">
<svg version="1.1" id="Calque_1" xmlns="http://www.w3.org/2000/svg" xmlns:xlink="http://www.w3.org/1999/xlink" x="0px" y="0px"
	 width="406.834px" height="119.746px" viewBox="0 0 406.834 119.746" enable-background="new 0 0 406.834 119.746"
	 xml:space="preserve">
<g>
	<g>
		<path fill="#F5F5F5" d="M44.308,80.535c-0.178,0.013-0.354,0.03-0.531,0.053l-32.418,1.388l-0.006,0.005
			c-0.054-0.089-0.11-0.18-0.168-0.27l0.002-0.004c0.266-0.025,0.528-0.053,0.794-0.074v0.092c0.401,0.336,0.71-0.017,1.068-0.036
			c0.095-0.007,0.19-0.015,0.285-0.033l-0.005-0.148c0.632-0.062,1.267-0.114,1.903-0.168L44.308,80.535z"/>
		<path fill="#F5F5F5" d="M45.491,111.277l-33.176,6.045c-2.377-0.423-4.692-0.544-6.953-2.21l39.667-3.956
			C45.182,111.207,45.334,111.245,45.491,111.277z"/>
		<path fill="#F5F5F5" d="M7.984,91.531l35.955-1.026c-0.078,0.021-0.155,0.047-0.229,0.081L8.019,92.543L7.984,91.531z"/>
		<path fill="#F5F5F5" d="M44.263,100.819l-39.266,3.827l-0.026-1.89l39.181-2.048C44.179,100.777,44.21,100.805,44.263,100.819z"/>
	</g>
	<polygon fill="#B1B1B1" points="78.106,25.774 78.368,27.729 51.497,25.625 51.203,23.322 60.295,24.148 61.521,24.261 
		70.517,25.082 71.78,25.197 	"/>
	<polygon fill="#B1B1B1" points="68.877,35.913 69.11,37.787 50.32,35.11 50.32,32.795 50.955,32.9 60.92,34.572 62.158,34.785 	"/>
	<polygon fill="#B1B1B1" points="58.172,45.315 58.272,47.648 49.223,45.048 49.113,42.233 50.268,42.625 51.506,43.043 	"/>
	<path fill="#B1B1B1" d="M47.832,45.025l-4.29,3.552c-0.185-0.562,0.049-1.94,0-2.106l4.29-4.006
		C47.728,42.756,47.418,43.949,47.832,45.025z"/>
	<path fill="#B1B1B1" d="M39.459,53.304l1.211-0.265c0,0,5.588-1.203,5.537-1.173c-0.157,0.095,0.283,1.884,0.369,1.906
		c0.089,0.017-13.625,2.58-13.625,2.58c0.082-0.151-0.329-1.314-0.232-1.589l6.738-1.477L39.459,53.304z"/>
	<path fill="#B1B1B1" d="M30.237,63.481l15.106-1.047l-0.001,0.002c-0.035,0.003-0.067,0.009-0.101,0.016
		c-0.072,0.01-0.146,0.028-0.214,0.05c-0.139,0.046-0.26,0.114-0.358,0.19c-0.216,0.174-0.3,0.394-0.29,0.602l0.009,0.175
		c0.01,0.209,0.12,0.426,0.352,0.578c0.102,0.071,0.23,0.127,0.377,0.164c0.069,0.017,0.143,0.028,0.218,0.034
		c0.079,0.007,0.156,0.01,0.235,0.006l-23.142,1.429c-0.135,0.006-0.147-1.645-0.082-1.65l6.649-0.46L30.237,63.481z"/>
	<path fill="#B1B1B1" d="M44.969,73.372c0.013,0,0.026,0.001,0.042,0.001l0.001,0.003l-31.505,1.505
		c-0.175,0.007-0.295-0.008-0.418-0.049l0.011-1.005c0.117-0.054,0.244-0.081,0.417-0.091l6.196-0.312l1.314-0.066l24.017-1.212
		c-0.06,0.004-0.123,0.011-0.183,0.02c-0.061,0.009-0.116,0.021-0.17,0.037c-0.099,0.031-0.181,0.073-0.245,0.116
		c-0.091,0.061-0.146,0.127-0.179,0.193c-0.043,0.079-0.06,0.154-0.055,0.231l0.005,0.116c0.004,0.077,0.028,0.152,0.076,0.224
		c0.043,0.063,0.104,0.125,0.2,0.177c0.066,0.037,0.151,0.069,0.256,0.091c0.053,0.01,0.111,0.016,0.172,0.019
		C44.938,73.37,44.952,73.371,44.969,73.372z"/>
	<path fill="#B1B1B1" d="M45.568,113.221l-32.857,6.506l-0.235,0.02c0.042-0.021-0.099-2.408-0.161-2.424l33.176-6.045
		C45.555,111.294,45.617,113.208,45.568,113.221z"/>
	<path fill="#B1B1B1" d="M11.359,81.976l32.418-1.388c-0.618,0.069-0.15,1.464,0.146,1.466l-31.775,1.128
		c0.006-0.011-0.394,0.133-0.962-0.285c-0.736-0.974-0.275-0.917,0.168-0.917L11.359,81.976z"/>
	<path fill="#B1B1B1" d="M44.512,102.627l-40.177,4.082l-0.148-2.077c0,0,40.13-3.76,40.153-3.726
		C44.375,100.964,44.538,102.625,44.512,102.627z"/>
	<path fill="#B1B1B1" d="M43.761,92.352c0.003,0.006,0.008,0.009,0.014,0.01l0.003,0.002L7.653,94.239l0.301-1.81l35.757-1.845
		c-0.006,0.004-0.013,0.01-0.017,0.012C43.685,90.607,43.754,92.347,43.761,92.352z"/>
	<g>
		<path fill="#F5F5F5" d="M51.497,25.625l26.943,2.028c-3.883,0.847-7.778,1.652-11.699,2.172c-0.095,0.015-0.19,0.01-0.284-0.016
			l-4.491-1.135l-1.239-0.316l-9.989-2.522l-0.151-0.039v-0.005c0.07,0.013,0.139,0.013,0.204-0.003
			C51.028,25.744,51.263,25.686,51.497,25.625z"/>
		<path fill="#F5F5F5" d="M50.542,35.079l18.568,2.708c-4.42,0.554-8.85,1.007-13.288,1.342c-0.203,0.015-0.38-0.028-0.567-0.149
			l-4.01-2.535l-1.254-0.792l-0.719-0.457c0.112,0.014,0.233,0.013,0.368-0.004C49.94,35.161,50.241,35.123,50.542,35.079z"/>
		<path fill="#F5F5F5" d="M49.286,45.005l8.986,2.744c-4.665,0.35-10.059,0.625-14.73,0.828l4.29-3.552
			C48.17,45.003,48.945,45.03,49.286,45.005z"/>
		<path fill="#F5F5F5" d="M47.953,53.752l-1.022,2.063c-4.628,0.226-9.261,0.405-13.897,0.535l13.952-2.701
			C47.331,53.637,47.608,53.769,47.953,53.752z"/>
		<path fill="#F5F5F5" d="M46.577,63.848l-11.112,1.354c-4.321,0.18-8.639,0.342-12.962,0.478l23.123-1.799
			C45.943,63.867,46.259,63.859,46.577,63.848z"/>
	</g>
	<path fill="#F5F5F5" d="M51.208,23.322l0.289,2.303c-0.184,0.037-0.71,0.178-0.91,0.172c-0.526-0.085-0.721-0.749-0.734-1.004
		l-0.014-0.215c-0.016-0.267,0.066-0.536,0.222-0.752c0.078-0.109,0.176-0.202,0.286-0.274c0.05-0.033,0.099-0.059,0.152-0.082
		c0.038-0.014,0.075-0.026,0.114-0.033c0.016-0.007,0.028-0.007,0.043-0.01C50.841,23.394,51.024,23.36,51.208,23.322z"/>
	<path fill="#F5F5F5" d="M49.516,35.278c-0.507-0.035-0.73-0.357-0.758-1.009l-0.014-0.229c-0.032-0.755,0.224-1.097,0.914-1.167
		c0.081-0.01,0.161-0.018,0.241-0.028c0.143-0.017,0.286-0.034,0.427-0.05l0.134,2.405c-0.224,0.028-0.447,0.052-0.67,0.073
		C49.689,35.285,49.599,35.286,49.516,35.278z"/>
	<path fill="#F5F5F5" d="M47.439,43.051c0.136-0.408,0.421-0.748,0.898-0.762c0.263-0.016,0.522-0.037,0.784-0.056l0.17,2.857
		c-0.265,0.019-0.523,0.057-0.787,0.058C46.882,45.153,47.358,43.283,47.439,43.051z"/>
	<path fill="#F5F5F5" d="M47.737,51.671l0.216,4.158c-0.345,0.016-0.686,0.029-1.031,0.041c-0.088,0.005-0.175-0.005-0.264-0.022
		c-0.087-0.022-0.171-0.053-0.251-0.097c-0.166-0.084-0.32-0.217-0.451-0.387c-0.267-0.349-0.426-0.841-0.451-1.336l-0.02-0.401
		c-0.027-0.489,0.083-0.988,0.312-1.349c0.113-0.174,0.253-0.316,0.41-0.411c0.051-0.03,0.106-0.06,0.165-0.077l0.338-0.076
		C47.052,51.701,47.393,51.688,47.737,51.671z"/>
	<path fill="#F5F5F5" d="M46.363,61.167l0.214,4.204c-0.318,0.011-0.634,0.019-0.952,0.032c-0.079,0.003-0.157-0.008-0.236-0.029
		c-0.075-0.018-0.15-0.049-0.221-0.091c-0.149-0.094-0.282-0.232-0.389-0.403c-0.242-0.365-0.366-0.87-0.39-1.354l-0.02-0.402
		c-0.023-0.48,0.046-0.981,0.252-1.369c0.094-0.168,0.211-0.318,0.347-0.415c0.067-0.046,0.141-0.083,0.212-0.103
		c0.033-0.011,0.065-0.023,0.101-0.028c0.043-0.01,0.085-0.017,0.13-0.014C45.732,61.187,46.047,61.176,46.363,61.167z"/>
	<path fill="#F5F5F5" d="M45.232,72.138l0.062,1.221l-0.538,0.023c-0.01,0-0.018-0.001-0.027-0.003
		c-0.035-0.004-0.069-0.011-0.1-0.023c-0.061-0.022-0.11-0.057-0.149-0.095c-0.057-0.055-0.092-0.117-0.119-0.182
		c-0.029-0.072-0.044-0.147-0.048-0.225l-0.005-0.116c-0.004-0.077,0.003-0.152,0.027-0.23c0.018-0.065,0.048-0.13,0.099-0.189
		c0.037-0.041,0.083-0.082,0.139-0.111c0.03-0.014,0.062-0.025,0.097-0.033c0.034-0.008,0.07-0.014,0.105-0.017
		C44.928,72.154,45.08,72.146,45.232,72.138z"/>
	<path fill="#F5F5F5" d="M44.522,81.981c-0.177,0.018-0.177,0.018-0.599,0.073c-0.262-0.219-0.754-1.217-0.146-1.466
		c0.177-0.023,0.353-0.04,0.531-0.053L44.522,81.981z"/>
	<path fill="#F5F5F5" d="M43.939,90.505l0.088,1.839l-0.276,0.01c-0.011-0.025-0.068-1.786-0.059-1.797
		C43.695,90.554,43.86,90.515,43.939,90.505z"/>
	<path fill="#F5F5F5" d="M12.476,119.746c-2.401-0.494-4.341-1.222-6.982-2.521l-0.132-2.112c2.548,0.937,4.576,1.787,6.953,2.21
		C12.377,117.338,12.555,119.76,12.476,119.746z"/>
	<path fill="#FFFFFF" d="M78.027,17.126c-1.454-3.22-3.89-6.703-6.681-9.553c-3.269-2.834-3.611-3.13-6.612-4.796
		C61.155,1.114,57.686-0.24,51.46,0.036c-2.015,0.204-2.015,0.204-3.04,0.394c-1.785,0.381-1.785,0.381-2.676,0.635
		c-1.657,0.515-1.657,0.515-2.482,0.827c-1.609,0.647-1.609,0.647-2.413,1.022c-1.632,0.799-1.632,0.799-2.451,1.258
		c-1.661,0.967-1.725,1.005-2.601,1.58c-1.831,1.252-1.901,1.301-2.886,2.059c-2.065,1.659-2.188,1.758-3.367,2.829
		c-2.412,2.299-2.609,2.488-4.134,4.154c-2.668,3.088-3.149,3.644-5.307,6.583c-2.79,4.082-3.539,5.179-6.373,10.235
		c-1.72,3.384-2.535,4.985-3.377,6.858C25.686,7.23,60.744-7.684,68.076,13.921l0,0c6.317,18.944-22.676,39.207-35.058,47.858
		C23.989,68.091,0.132,84.771,0,99.367c0.232,2.709,0.577,5.612,1.136,8.663c0.468,2.184,1.099,5.094,1.65,7.198l-0.229-1.187
		c-0.379-8.91,8.181-18.927,15.428-25.759C35.562,71.71,54.377,63.468,72.18,48.403C76.198,45.002,85.082,32.757,78.027,17.126z"/>
</g>
<g>
	<path fill="#FFFFFF" d="M126.805,61.079h-2.842l-3.033-8.43h-16.241l-3.009,8.43h-2.842l12.801-34.822h2.365L126.805,61.079z
		 M120.118,50.259l-7.308-20.492l-7.285,20.492H120.118z"/>
	<path fill="#FFFFFF" d="M158.211,61.079h-3.128l-11.201-19.513l-8.312,10.079v9.434h-2.651V26.257h2.651v21.758l17.65-21.758h3.176
		L145.649,39.56L158.211,61.079z"/>
	<path fill="#FFFFFF" d="M167.12,61.079h-2.651V26.257h2.651V61.079z"/>
	<path fill="#C6C6C5" d="M199.102,50.807c0,3.294-1.215,5.878-3.644,7.752c-2.429,1.876-5.52,2.812-9.269,2.812
		c-5.446,0-9.685-1.533-12.717-4.597l4.402-4.403c1.957,1.957,4.76,2.935,8.413,2.935c4.108,0,6.163-1.435,6.163-4.304
		c0-1.304-0.342-2.274-1.027-2.911c-0.686-0.636-1.729-1.051-3.131-1.247l-4.207-0.587c-6.163-0.848-9.244-4.092-9.244-9.734
		c0-3.163,1.092-5.714,3.277-7.655c2.184-1.94,5.136-2.91,8.854-2.91c4.695,0,8.445,1.354,11.25,4.06l-4.305,4.255
		c-1.663-1.597-4.044-2.396-7.141-2.396c-1.729,0-3.057,0.416-3.987,1.247c-0.929,0.832-1.394,1.883-1.394,3.155
		c0,1.011,0.367,1.858,1.101,2.543c0.733,0.685,1.785,1.125,3.155,1.321l4.108,0.587c2.967,0.424,5.185,1.321,6.652,2.69
		C198.205,45.117,199.102,47.579,199.102,50.807z"/>
	<path fill="#C6C6C5" d="M227.863,32.318h-9.098v28.761h-6.799V32.318h-9.097v-6.065h24.994V32.318z"/>
	<path fill="#C6C6C5" d="M256.329,61.079h-22.939V26.253h22.939v6.065h-16.14v8.168h13.744v6.065h-13.744v8.461h16.14V61.079z"/>
	<path fill="#C6C6C5" d="M285.921,61.079h-22.94V26.253h22.94v6.065H269.78v8.168h13.744v6.065H269.78v8.461h16.142V61.079z"/>
	<path fill="#C6C6C5" d="M315.172,61.079h-22.598V26.253h6.799v28.76h15.799V61.079z"/>
</g>
<g>
	<path fill="#E3E3E2" d="M184.696,82.359h-1.978v-8.647l-2.967,6.306h-1.452l-3.047-6.306v8.647h-1.978v-12.93h1.978l3.774,8.043
		l3.693-8.043h1.978V82.359z"/>
	<path fill="#E3E3E2" d="M200.4,82.359h-8.274v-12.93h8.274v1.765h-6.296v3.769h5.374v1.747h-5.374v3.884h6.296V82.359z
		 M198.574,65.226l-2.022,2.944h-1.393l1.357-2.944H198.574z"/>
	<path fill="#E3E3E2" d="M215.11,71.194h-3.556v11.165h-1.959V71.194h-3.566v-1.765h9.081V71.194z"/>
	<path fill="#E3E3E2" d="M230.956,82.359h-2.092l-0.886-2.598h-5.104l-0.886,2.598h-2.091l4.74-12.93h1.578L230.956,82.359z
		 M227.429,78.093l-1.959-5.737l-2.011,5.737H227.429z"/>
	<path fill="#E3E3E2" d="M245.063,82.359h-8.202v-12.93h1.978v11.165h6.225V82.359z"/>
	<path fill="#E3E3E2" d="M259.579,82.359h-8.203v-12.93h1.978v11.165h6.226V82.359z"/>
	<path fill="#E3E3E2" d="M274.165,82.359h-8.273v-12.93h8.273v1.765h-6.296v3.769h5.373v1.747h-5.373v3.884h6.296V82.359z"/>
	<path fill="#E3E3E2" d="M290.365,82.359h-2.289l-2.722-5.436h-2.447v5.436h-1.978v-12.93h5.024c0.793,0,1.495,0.161,2.107,0.484
		c0.612,0.322,1.083,0.769,1.411,1.34c0.329,0.571,0.493,1.223,0.493,1.957c0,0.888-0.238,1.629-0.714,2.224
		c-0.476,0.595-1.096,0.999-1.858,1.212L290.365,82.359z M288.005,73.229c0-0.631-0.199-1.127-0.599-1.49
		c-0.398-0.363-0.933-0.544-1.601-0.544h-2.899v4.044h2.899c0.662,0,1.194-0.18,1.597-0.54
		C287.804,74.338,288.005,73.848,288.005,73.229z"/>
	<path fill="#E3E3E2" d="M298.885,82.359h-1.978v-12.93h1.978V82.359z"/>
	<path fill="#E3E3E2" d="M314.607,82.359h-8.275v-12.93h8.275v1.765h-6.297v3.769h5.373v1.747h-5.373v3.884h6.297V82.359z"/>
</g>
<g id="Calque_5">
	<defs>
		<rect id="SVGID_1_" x="170.098" y="15.924" width="148.949" height="26.606"/>
	</defs>
	<clipPath id="SVGID_2_">
		<use xlink:href="#SVGID_1_"  overflow="visible"/>
	</clipPath>
	<g clip-path="url(#SVGID_2_)">
		<path fill="#D8D8D8" d="M126.805,61.079h-2.842l-3.033-8.43h-16.241l-3.009,8.43h-2.842l12.801-34.822h2.365L126.805,61.079z
			 M120.118,50.259l-7.308-20.492l-7.285,20.492H120.118z"/>
		<path fill="#D8D8D8" d="M158.211,61.079h-3.128l-11.201-19.513l-8.312,10.079v9.434h-2.651V26.257h2.651v21.758l17.65-21.758
			h3.176L145.649,39.56L158.211,61.079z"/>
		<path fill="#D8D8D8" d="M167.12,61.079h-2.651V26.257h2.651V61.079z"/>
		<path fill="#D8D8D8" d="M199.102,50.807c0,3.294-1.215,5.878-3.644,7.752c-2.429,1.876-5.52,2.812-9.269,2.812
			c-5.446,0-9.685-1.533-12.717-4.597l4.402-4.403c1.957,1.957,4.76,2.935,8.413,2.935c4.108,0,6.163-1.435,6.163-4.304
			c0-1.304-0.342-2.274-1.027-2.911c-0.686-0.636-1.729-1.051-3.131-1.247l-4.207-0.587c-6.163-0.848-9.244-4.092-9.244-9.734
			c0-3.163,1.092-5.714,3.277-7.655c2.184-1.94,5.136-2.91,8.854-2.91c4.695,0,8.445,1.354,11.25,4.06l-4.305,4.255
			c-1.663-1.597-4.044-2.396-7.141-2.396c-1.729,0-3.057,0.416-3.987,1.247c-0.929,0.832-1.394,1.883-1.394,3.155
			c0,1.011,0.367,1.858,1.101,2.543c0.733,0.685,1.785,1.125,3.155,1.321l4.108,0.587c2.967,0.424,5.185,1.321,6.652,2.69
			C198.205,45.117,199.102,47.579,199.102,50.807z"/>
		<path fill="#D8D8D8" d="M227.863,32.318h-9.098v28.761h-6.799V32.318h-9.097v-6.065h24.994V32.318z"/>
		<path fill="#D8D8D8" d="M256.329,61.079h-22.939V26.253h22.939v6.065h-16.14v8.168h13.744v6.065h-13.744v8.461h16.14V61.079z"/>
		<path fill="#D8D8D8" d="M285.921,61.079h-22.94V26.253h22.94v6.065H269.78v8.168h13.744v6.065H269.78v8.461h16.142V61.079z"/>
		<path fill="#D8D8D8" d="M315.172,61.079h-22.598V26.253h6.799v28.76h15.799V61.079z"/>
	</g>
</g>
<g>
	<g>
		<path fill="#F5F5F5" d="M362.527,80.535c0.176,0.013,0.352,0.03,0.529,0.053l32.418,1.388l0.006,0.005
			c0.055-0.089,0.111-0.18,0.168-0.27l-0.002-0.004c-0.266-0.025-0.527-0.053-0.793-0.074l-0.002,0.092
			c-0.4,0.336-0.711-0.017-1.068-0.036c-0.094-0.007-0.189-0.015-0.283-0.033l0.004-0.148c-0.633-0.062-1.268-0.114-1.902-0.168
			L362.527,80.535z"/>
		<path fill="#F5F5F5" d="M361.342,111.277l33.178,6.045c2.377-0.423,4.693-0.544,6.953-2.21l-39.666-3.956
			C361.652,111.207,361.5,111.245,361.342,111.277z"/>
		<path fill="#F5F5F5" d="M398.852,91.531l-35.957-1.026c0.08,0.021,0.156,0.047,0.229,0.081l35.693,1.957L398.852,91.531z"/>
		<path fill="#F5F5F5" d="M362.57,100.819l39.268,3.827l0.025-1.89l-39.182-2.048C362.656,100.777,362.623,100.805,362.57,100.819z"
			/>
	</g>
	<polygon fill="#B1B1B1" points="328.729,25.774 328.467,27.729 355.338,25.625 355.631,23.322 346.539,24.148 345.312,24.261 
		336.316,25.082 335.055,25.197 	"/>
	<polygon fill="#B1B1B1" points="337.957,35.913 337.725,37.787 356.514,35.11 356.514,32.795 355.879,32.9 345.914,34.572 
		344.676,34.785 	"/>
	<polygon fill="#B1B1B1" points="348.662,45.315 348.562,47.648 357.611,45.048 357.721,42.233 356.566,42.625 355.328,43.043 	"/>
	<path fill="#B1B1B1" d="M359.002,45.025l4.289,3.552c0.186-0.562-0.049-1.94,0-2.106l-4.289-4.006
		C359.107,42.756,359.416,43.949,359.002,45.025z"/>
	<path fill="#B1B1B1" d="M367.375,53.304l-1.211-0.265c0,0-5.588-1.203-5.537-1.173c0.156,0.095-0.283,1.884-0.369,1.906
		c-0.09,0.017,13.625,2.58,13.625,2.58c-0.082-0.151,0.328-1.314,0.232-1.589l-6.738-1.477L367.375,53.304z"/>
	<path fill="#B1B1B1" d="M376.598,63.481l-15.107-1.047l0.002,0.002c0.035,0.003,0.068,0.009,0.102,0.016
		c0.07,0.01,0.146,0.028,0.213,0.05c0.139,0.046,0.262,0.114,0.359,0.19c0.217,0.174,0.299,0.394,0.289,0.602l-0.008,0.175
		c-0.01,0.209-0.121,0.426-0.352,0.578c-0.102,0.071-0.23,0.127-0.377,0.164c-0.068,0.017-0.143,0.028-0.219,0.034
		c-0.078,0.007-0.154,0.01-0.234,0.006l23.143,1.429c0.135,0.006,0.146-1.645,0.082-1.65l-6.65-0.46L376.598,63.481z"/>
	<path fill="#B1B1B1" d="M361.865,73.372c-0.014,0-0.027,0.001-0.043,0.001v0.003l31.504,1.505c0.176,0.007,0.297-0.008,0.42-0.049
		l-0.012-1.005c-0.117-0.054-0.244-0.081-0.418-0.091l-6.195-0.312l-1.314-0.066l-24.018-1.212c0.061,0.004,0.123,0.011,0.184,0.02
		s0.115,0.021,0.17,0.037c0.098,0.031,0.18,0.073,0.244,0.116c0.092,0.061,0.146,0.127,0.18,0.193
		c0.043,0.079,0.059,0.154,0.055,0.231l-0.006,0.116c-0.004,0.077-0.027,0.152-0.074,0.224c-0.043,0.063-0.104,0.125-0.199,0.177
		c-0.068,0.037-0.152,0.069-0.258,0.091c-0.053,0.01-0.111,0.016-0.172,0.019C361.896,73.37,361.883,73.371,361.865,73.372z"/>
	<path fill="#B1B1B1" d="M361.266,113.221l32.857,6.506l0.234,0.02c-0.041-0.021,0.1-2.408,0.162-2.424l-33.178-6.045
		C361.279,111.294,361.217,113.208,361.266,113.221z"/>
	<path fill="#B1B1B1" d="M395.475,81.976l-32.418-1.388c0.619,0.069,0.15,1.464-0.146,1.466l31.775,1.128
		c-0.006-0.011,0.395,0.133,0.963-0.285c0.736-0.974,0.275-0.917-0.168-0.917L395.475,81.976z"/>
	<path fill="#B1B1B1" d="M362.322,102.627l40.178,4.082l0.148-2.077c0,0-40.131-3.76-40.154-3.726
		C362.459,100.964,362.297,102.625,362.322,102.627z"/>
	<path fill="#B1B1B1" d="M363.072,92.352c-0.002,0.006-0.008,0.009-0.012,0.01l-0.004,0.002l36.125,1.876l-0.301-1.81l-35.758-1.845
		c0.008,0.004,0.014,0.01,0.018,0.012C363.15,90.607,363.08,92.347,363.072,92.352z"/>
	<g>
		<path fill="#F5F5F5" d="M355.338,25.625l-26.943,2.028c3.883,0.847,7.777,1.652,11.699,2.172c0.096,0.015,0.189,0.01,0.283-0.016
			l4.492-1.135l1.24-0.316l9.988-2.522l0.15-0.039v-0.005c-0.07,0.013-0.139,0.013-0.203-0.003
			C355.807,25.744,355.572,25.686,355.338,25.625z"/>
		<path fill="#F5F5F5" d="M356.293,35.079l-18.568,2.708c4.42,0.554,8.85,1.007,13.287,1.342c0.203,0.015,0.379-0.028,0.566-0.149
			l4.012-2.535l1.252-0.792l0.721-0.457c-0.111,0.014-0.232,0.013-0.369-0.004C356.893,35.161,356.594,35.123,356.293,35.079z"/>
		<path fill="#F5F5F5" d="M357.549,45.005l-8.986,2.744c4.664,0.35,10.059,0.625,14.729,0.828l-4.289-3.552
			C358.664,45.003,357.889,45.03,357.549,45.005z"/>
		<path fill="#F5F5F5" d="M358.881,53.752l1.023,2.063c4.627,0.226,9.26,0.405,13.896,0.535l-13.953-2.701
			C359.504,53.637,359.227,53.769,358.881,53.752z"/>
		<path fill="#F5F5F5" d="M360.258,63.848l11.111,1.354c4.32,0.18,8.639,0.342,12.963,0.478l-23.123-1.799
			C360.891,63.867,360.576,63.859,360.258,63.848z"/>
	</g>
	<path fill="#F5F5F5" d="M355.627,23.322l-0.289,2.303c0.184,0.037,0.711,0.178,0.91,0.172c0.525-0.085,0.721-0.749,0.734-1.004
		l0.014-0.215c0.016-0.267-0.066-0.536-0.223-0.752c-0.076-0.109-0.176-0.202-0.285-0.274c-0.051-0.033-0.1-0.059-0.152-0.082
		c-0.037-0.014-0.076-0.026-0.113-0.033c-0.016-0.007-0.029-0.007-0.043-0.01C355.994,23.394,355.811,23.36,355.627,23.322z"/>
	<path fill="#F5F5F5" d="M357.318,35.278c0.506-0.035,0.73-0.357,0.758-1.009l0.014-0.229c0.033-0.755-0.223-1.097-0.914-1.167
		c-0.08-0.01-0.16-0.018-0.24-0.028c-0.143-0.017-0.287-0.034-0.428-0.05l-0.133,2.405c0.223,0.028,0.447,0.052,0.67,0.073
		C357.145,35.285,357.236,35.286,357.318,35.278z"/>
	<path fill="#F5F5F5" d="M359.395,43.051c-0.135-0.408-0.42-0.748-0.896-0.762c-0.264-0.016-0.523-0.037-0.785-0.056l-0.17,2.857
		c0.264,0.019,0.523,0.057,0.787,0.058C359.951,45.153,359.477,43.283,359.395,43.051z"/>
	<path fill="#F5F5F5" d="M359.098,51.671l-0.217,4.158c0.346,0.016,0.686,0.029,1.031,0.041c0.088,0.005,0.174-0.005,0.264-0.022
		c0.086-0.022,0.172-0.053,0.25-0.097c0.168-0.084,0.32-0.217,0.451-0.387c0.268-0.349,0.428-0.841,0.451-1.336l0.021-0.401
		c0.025-0.489-0.084-0.988-0.312-1.349c-0.113-0.174-0.254-0.316-0.41-0.411c-0.051-0.03-0.105-0.06-0.166-0.077l-0.336-0.076
		C359.783,51.701,359.441,51.688,359.098,51.671z"/>
	<path fill="#F5F5F5" d="M360.471,61.167l-0.213,4.204c0.318,0.011,0.633,0.019,0.951,0.032c0.078,0.003,0.156-0.008,0.236-0.029
		c0.074-0.018,0.15-0.049,0.221-0.091c0.148-0.094,0.281-0.232,0.389-0.403c0.242-0.365,0.365-0.87,0.391-1.354l0.02-0.402
		c0.023-0.48-0.047-0.981-0.252-1.369c-0.094-0.168-0.211-0.318-0.348-0.415c-0.068-0.046-0.141-0.083-0.211-0.103
		c-0.033-0.011-0.066-0.023-0.102-0.028c-0.043-0.01-0.086-0.017-0.131-0.014C361.102,61.187,360.787,61.176,360.471,61.167z"/>
	<path fill="#F5F5F5" d="M361.604,72.138l-0.062,1.221l0.537,0.023c0.01,0,0.018-0.001,0.027-0.003
		c0.035-0.004,0.068-0.011,0.1-0.023c0.062-0.022,0.111-0.057,0.15-0.095c0.057-0.055,0.092-0.117,0.119-0.182
		c0.027-0.072,0.043-0.147,0.047-0.225l0.006-0.116c0.004-0.077-0.004-0.152-0.027-0.23c-0.018-0.065-0.047-0.13-0.098-0.189
		c-0.037-0.041-0.084-0.082-0.139-0.111c-0.031-0.014-0.062-0.025-0.098-0.033s-0.07-0.014-0.105-0.017
		C361.906,72.154,361.754,72.146,361.604,72.138z"/>
	<path fill="#F5F5F5" d="M362.312,81.981c0.176,0.018,0.176,0.018,0.598,0.073c0.262-0.219,0.754-1.217,0.146-1.466
		c-0.178-0.023-0.354-0.04-0.529-0.053L362.312,81.981z"/>
	<path fill="#F5F5F5" d="M362.895,90.505l-0.086,1.839l0.273,0.01c0.012-0.025,0.068-1.786,0.061-1.797
		C363.139,90.554,362.975,90.515,362.895,90.505z"/>
	<path fill="#F5F5F5" d="M394.357,119.746c2.402-0.494,4.342-1.222,6.982-2.521l0.133-2.112c-2.549,0.937-4.576,1.787-6.953,2.21
		C394.457,117.338,394.279,119.76,394.357,119.746z"/>
	<path fill="#FFFFFF" d="M328.807,17.126c1.455-3.22,3.891-6.703,6.682-9.553c3.268-2.834,3.611-3.13,6.611-4.796
		c3.578-1.663,7.049-3.017,13.275-2.741c2.014,0.204,2.014,0.204,3.039,0.394c1.785,0.381,1.785,0.381,2.676,0.635
		c1.656,0.515,1.656,0.515,2.482,0.827c1.609,0.647,1.609,0.647,2.412,1.022c1.631,0.799,1.631,0.799,2.451,1.258
		c1.66,0.967,1.727,1.005,2.602,1.58c1.83,1.252,1.9,1.301,2.887,2.059c2.064,1.659,2.186,1.758,3.365,2.829
		c2.412,2.299,2.609,2.488,4.135,4.154c2.668,3.088,3.148,3.644,5.307,6.583c2.789,4.082,3.539,5.179,6.373,10.235
		c1.721,3.384,2.533,4.985,3.377,6.858C381.148,7.23,346.09-7.684,338.758,13.921l0,0c-6.316,18.944,22.678,39.207,35.059,47.858
		c9.029,6.311,32.885,22.991,33.018,37.587c-0.232,2.709-0.576,5.612-1.137,8.663c-0.467,2.184-1.098,5.094-1.65,7.198l0.23-1.187
		c0.379-8.91-8.182-18.927-15.428-25.759c-17.578-16.573-36.393-24.815-54.195-39.88C330.637,45.002,321.754,32.757,328.807,17.126z
		"/>
</g>
</svg>
