<?xml version="1.0" encoding="utf-8"?>
<!-- Generator: Adobe Illustrator 15.0.0, SVG Export Plug-In . SVG Version: 6.00 Build 0)  -->
<!DOCTYPE svg PUBLIC "-//W3C//DTD SVG 1.1//EN" "http://www.w3.org/Graphics/SVG/1.1/DTD/svg11.dtd">
<svg version="1.1" id="Mode_Isolation" xmlns="http://www.w3.org/2000/svg" xmlns:xlink="http://www.w3.org/1999/xlink" x="0px"
	 y="0px" width="141.476px" height="123.474px" viewBox="0 0 141.476 123.474" enable-background="new 0 0 141.476 123.474"
	 xml:space="preserve">
<path fill="#17356D" d="M28.699,1.388c-4.594,1.218-9.75,3.681-14.148,6.754c-4.482,3.71-4.949,4.099-7.822,7.712
	c-2.997,4.38-5.558,8.684-6.567,17.004c-0.176,2.719-0.176,2.719-0.149,4.118c0.112,2.452,0.112,2.452,0.254,3.691
	c0.316,2.311,0.316,2.311,0.548,3.475c0.501,2.279,0.501,2.279,0.823,3.426c0.7,2.342,0.7,2.342,1.129,3.529
	c0.916,2.418,0.952,2.511,1.521,3.8c1.257,2.705,1.307,2.809,2.095,4.284c1.745,3.105,1.849,3.29,3.009,5.09
	c2.518,3.707,2.725,4.01,4.598,6.401c3.507,4.222,4.139,4.983,7.562,8.495c4.798,4.602,6.088,5.839,12.169,10.713
	c4.109,3.028,6.055,4.461,8.354,5.994C4.015,68.636-8.029,18.838,22.251,13.882l0,0C48.776,9.684,69.257,52.62,78,70.955
	c6.377,13.372,23.239,48.701,42.575,52.102c3.642,0.288,7.572,0.472,11.744,0.403c3-0.139,6.998-0.332,9.913-0.598l-1.624,0.042
	c-11.904-1.465-23.304-15.033-30.767-26.155C91.734,69.771,84.954,42.992,68.9,16.05C65.275,9.969,50.991-4.52,28.699,1.388z"/>
</svg>
