<?xml version="1.0" encoding="utf-8"?>
<!-- Generator: Adobe Illustrator 16.0.0, SVG Export Plug-In . SVG Version: 6.00 Build 0)  -->
<!DOCTYPE svg PUBLIC "-//W3C//DTD SVG 1.1//EN" "http://www.w3.org/Graphics/SVG/1.1/DTD/svg11.dtd">
<svg version="1.1" id="Mode_Isolation" xmlns="http://www.w3.org/2000/svg" xmlns:xlink="http://www.w3.org/1999/xlink" x="0px"
	 y="0px" width="44.53px" height="85.328px" viewBox="0 0 44.53 85.328" enable-background="new 0 0 44.53 85.328"
	 xml:space="preserve">
<path fill="#17356D" d="M40.341,7.695c-1.474-1.887-3.628-3.781-5.908-5.197c-2.587-1.325-2.857-1.463-5.078-2.06
	c-2.594-0.497-5.066-0.808-9.057,0.424c-1.273,0.475-1.273,0.475-1.905,0.773c-1.094,0.554-1.094,0.554-1.63,0.873
	c-0.988,0.619-0.988,0.619-1.471,0.965c-0.937,0.699-0.937,0.699-1.396,1.083c-0.926,0.805-0.926,0.805-1.38,1.247
	c-0.918,0.92-0.953,0.957-1.425,1.484c-0.98,1.138-1.017,1.183-1.531,1.85c-1.064,1.446-1.127,1.533-1.715,2.44
	c-1.183,1.929-1.28,2.087-1.993,3.447c-1.22,2.494-1.44,2.944-2.354,5.253c-1.134,3.173-1.439,4.026-2.44,7.85
	C0.5,30.658,0.238,31.855,0,33.238C4.78,9.971,25.041-5.814,33.361,7.252l0,0c7.223,11.475-8.224,29.779-14.821,37.594
	c-4.811,5.7-17.52,20.766-15.196,30.452c0.598,1.753,1.301,3.618,2.167,5.543c0.664,1.366,1.553,3.187,2.257,4.487l-0.345-0.747
	c-1.717-5.834,2.178-13.909,5.748-19.655c8.657-13.935,19.492-22.565,28.543-35.539C43.758,26.458,47.494,16.853,40.341,7.695z"/>
</svg>
