<?xml version="1.0" encoding="utf-8"?>
<!-- Generator: Adobe Illustrator 15.0.0, SVG Export Plug-In . SVG Version: 6.00 Build 0)  -->
<!DOCTYPE svg PUBLIC "-//W3C//DTD SVG 1.1//EN" "http://www.w3.org/Graphics/SVG/1.1/DTD/svg11.dtd">
<svg version="1.1" id="Mode_Isolation" xmlns="http://www.w3.org/2000/svg" xmlns:xlink="http://www.w3.org/1999/xlink" x="0px"
	 y="0px" width="78.844px" height="147.926px" viewBox="0 0 78.844 147.926" enable-background="new 0 0 78.844 147.926"
	 xml:space="preserve">
<path fill="#17356D" d="M71.426,13.34c-2.61-3.271-6.424-6.555-10.461-9.01c-4.58-2.297-5.059-2.537-8.991-3.571
	c-4.593-0.862-8.971-1.401-16.035,0.735c-2.254,0.823-2.254,0.823-3.373,1.34c-1.938,0.96-1.938,0.96-2.886,1.513
	C27.93,5.42,27.93,5.42,27.074,6.02c-1.659,1.213-1.659,1.213-2.47,1.878c-1.64,1.395-1.64,1.395-2.445,2.162
	c-1.625,1.595-1.686,1.658-2.523,2.573c-1.735,1.973-1.801,2.05-2.711,3.208c-1.884,2.507-1.996,2.657-3.037,4.23
	c-2.095,3.344-2.266,3.618-3.529,5.976c-2.16,4.324-2.55,5.103-4.167,9.107c-2.008,5.5-2.548,6.979-4.321,13.608
	C0.886,53.148,0.42,55.225,0,57.621c8.463-40.336,44.337-67.701,59.068-45.049l0,0c12.788,19.894-14.562,51.626-26.243,65.174
	c-8.518,9.882-31.019,36-26.905,52.792c1.059,3.039,2.304,6.272,3.838,9.609c1.175,2.369,2.749,5.524,3.997,7.779l-0.61-1.294
	c-3.04-10.115,3.856-24.115,10.176-34.075c15.328-24.159,34.511-39.12,50.538-61.612C77.476,45.867,84.091,29.215,71.426,13.34z"/>
</svg>
