<?xml version="1.0" encoding="utf-8"?>
<!-- Generator: Adobe Illustrator 15.0.0, SVG Export Plug-In . SVG Version: 6.00 Build 0)  -->
<!DOCTYPE svg PUBLIC "-//W3C//DTD SVG 1.1//EN" "http://www.w3.org/Graphics/SVG/1.1/DTD/svg11.dtd">
<svg version="1.1" id="Mode_Isolation" xmlns="http://www.w3.org/2000/svg" xmlns:xlink="http://www.w3.org/1999/xlink" x="0px"
	 y="0px" width="104.751px" height="71.092px" viewBox="0 0 104.751 71.092" enable-background="new 0 0 104.751 71.092"
	 xml:space="preserve">
<path fill="#17356D" d="M89.864,68.463c2.867-1.376,5.948-3.643,8.454-6.214c2.481-3.001,2.74-3.315,4.175-6.051
	c1.42-3.255,2.564-6.405,2.185-12.001c-0.226-1.809-0.226-1.809-0.418-2.726c-0.381-1.598-0.381-1.598-0.629-2.395
	c-0.498-1.48-0.498-1.48-0.796-2.216c-0.616-1.435-0.616-1.435-0.971-2.149c-0.754-1.452-0.754-1.452-1.185-2.179
	c-0.905-1.475-0.941-1.531-1.476-2.306c-1.166-1.621-1.211-1.683-1.914-2.554c-1.536-1.822-1.628-1.931-2.616-2.969
	c-2.12-2.121-2.294-2.294-3.826-3.631c-2.834-2.335-3.345-2.756-6.036-4.636c-3.731-2.423-4.735-3.075-9.343-5.517
	c-3.082-1.475-4.54-2.174-6.243-2.893c28.433,13.133,42.595,44.36,23.311,51.415l0,0C75.625,65.526,56.778,39.87,48.732,28.913
	c-5.87-7.99-21.383-29.101-34.521-28.912c-2.431,0.267-5.037,0.638-7.77,1.207C4.487,1.676,1.882,2.304,0,2.845l1.062-0.232
	c8.009-0.53,17.204,6.96,23.505,13.336c15.284,15.464,23.099,32.218,37.03,47.916C64.743,67.408,75.95,75.142,89.864,68.463z"/>
</svg>
