<?xml version="1.0" encoding="utf-8"?>
<!-- Generator: Adobe Illustrator 15.0.0, SVG Export Plug-In . SVG Version: 6.00 Build 0)  -->
<!DOCTYPE svg PUBLIC "-//W3C//DTD SVG 1.1//EN" "http://www.w3.org/Graphics/SVG/1.1/DTD/svg11.dtd">
<svg version="1.1" id="Calque_1" xmlns="http://www.w3.org/2000/svg" xmlns:xlink="http://www.w3.org/1999/xlink" x="0px" y="0px"
	 width="76.22px" height="75.727px" viewBox="0 0 76.22 75.727" enable-background="new 0 0 76.22 75.727" xml:space="preserve">
<g>
	<path fill="#FFFFFF" d="M41.913,53.882c-1.225,0.271-2,1.484-1.729,2.71c0.272,1.226,1.489,2.001,2.713,1.729
		c1.222-0.271,1.995-1.487,1.723-2.714C44.349,54.383,43.134,53.611,41.913,53.882z"/>
	<path fill="#FFFFFF" d="M28.937,18.861l9.927-2.202c0.25-0.056,0.369-0.476,0.266-0.94c-0.103-0.463-0.388-0.792-0.638-0.736
		l-9.927,2.202c-0.252,0.057-0.37,0.475-0.267,0.938C28.401,18.585,28.684,18.917,28.937,18.861z"/>
	
		<rect x="21.974" y="24.089" transform="matrix(-0.2166 -0.9763 0.9763 -0.2166 11.526 79.807)" fill="#FFFFFF" width="31.622" height="22.38"/>
	<path fill="#FFFFFF" d="M38.357,0C17.445,0,0.494,16.952,0.494,37.863c0,20.912,16.952,37.864,37.864,37.864
		c20.911,0,37.863-16.952,37.863-37.864C76.22,16.952,59.269,0,38.357,0z M53.713,59.528l-20.108,4.461
		c-1.924,0.427-3.824-0.786-4.25-2.707l-9.057-40.829c-0.427-1.922,0.781-3.826,2.706-4.253l20.108-4.46
		c1.92-0.426,3.821,0.787,4.248,2.71l9.058,40.829C56.843,57.199,55.632,59.102,53.713,59.528z"/>
</g>
</svg>
